<?xml version="1.0" standalone="no"?>
<!DOCTYPE svg PUBLIC "-//W3C//DTD SVG 1.1//EN" "http://www.w3.org/Graphics/SVG/1.1/DTD/svg11.dtd" >
<svg xmlns="http://www.w3.org/2000/svg">
<metadata>Generated by IcoMoon</metadata>
<defs>
<font id="icon-choice-common" horiz-adv-x="512">
<font-face units-per-em="512" ascent="480" descent="-32" />
<missing-glyph horiz-adv-x="512" />
<glyph unicode="&#x20;" d="" horiz-adv-x="256" />
<glyph unicode="&#x21;" d="M442.224 375.888c-19.168 0-31.008-7.84-37.584-14.432-15.248-15.28-15.632-36.464-15.616-38.784v-36.816h-266.048v36.832c0 38-31.536 52.64-52.736 53.2-10.080 0.864-17.936-7.472-18.192-17.264-0.272-9.792 7.456-17.936 17.248-18.192 4.272-0.112 18.208-1.712 18.208-17.744v-301.2c-0.032-2.368 0.064-23.472 15.168-38.832 6.576-6.688 18.528-14.656 38.032-14.656h230.752c21.312 0.208 53.024 14.544 53.024 53.2v301.536c0 1.376 0.896 9.296 5.264 13.68 0.992 0.992 4 4.016 12.464 4.016 9.792 0 17.728 7.936 17.728 17.728 0.032 9.792-7.92 17.728-17.712 17.728zM371.296 3.472h-230.592c-14.512 0-17.664 9.6-17.728 17.728v246.944h266.048v-246.944c0-14.144-9.84-17.456-17.728-17.728zM283.792 357.28c0-19.584 15.888-35.472 35.472-35.472s35.472 15.888 35.472 35.472-15.888 35.472-35.472 35.472c-19.584 0-35.472-15.872-35.472-35.472zM319.264 375.024c9.776 0 17.728-7.952 17.728-17.728s-7.952-17.728-17.728-17.728c-9.776 0-17.728 7.952-17.728 17.728 0 9.76 7.952 17.728 17.728 17.728zM195.408 355.472c19.584 0 35.472 15.888 35.472 35.472s-15.888 35.472-35.472 35.472-35.472-15.888-35.472-35.472 15.872-35.472 35.472-35.472zM195.408 408.688c9.776 0 17.728-7.952 17.728-17.728s-7.952-17.728-17.728-17.728c-9.776 0-17.728 7.952-17.728 17.728-0.016 9.76 7.936 17.728 17.728 17.728zM275.248 426.8c14.688 0 26.608 11.92 26.608 26.608 0 14.672-11.92 26.592-26.608 26.592s-26.608-11.92-26.608-26.608c0-14.688 11.92-26.592 26.608-26.592zM275.248 462.272c4.896 0 8.864-3.984 8.864-8.864 0-4.896-3.968-8.864-8.864-8.864s-8.864 3.968-8.864 8.864c0 4.88 3.968 8.864 8.864 8.864zM346.16 89.52h-53.2c-4.896 0-8.864-3.968-8.864-8.864s3.984-8.864 8.864-8.864h53.2c4.896 0 8.864 3.968 8.864 8.864 0 4.912-3.968 8.864-8.864 8.864zM346.16 142.736h-53.2c-4.896 0-8.864-3.968-8.864-8.864s3.984-8.864 8.864-8.864h53.2c4.896 0 8.864 3.968 8.864 8.864s-3.968 8.864-8.864 8.864zM346.16 195.936h-53.2c-4.896 0-8.864-3.968-8.864-8.864s3.984-8.864 8.864-8.864h53.2c4.896 0 8.864 3.968 8.864 8.864s-3.968 8.864-8.864 8.864z" />
<glyph unicode="&#x22;" d="M294.576-32c-5.424 0-10.624 2.16-14.464 5.984l-274.112 274.144c-3.84 3.824-6 9.040-6 14.464v151.456c0 56.704 9.168 65.952 65.36 65.952h152.064c5.424 0 10.624-2.16 14.464-6l274.112-274.112c7.984-7.984 7.984-20.928 0-28.928l-196.96-196.976c-3.84-3.824-9.040-5.984-14.464-5.984zM40.912 271.056l253.648-253.68 168.048 168.064-253.648 253.648h-143.6c-8.832 0-18.608 0-23.84-0.624-0.608-5.184-0.608-14.928-0.608-24.416v-142.992zM149.184 283.616c-28.304 0-51.328 23.040-51.328 51.344s23.024 51.344 51.328 51.344c28.32 0 51.344-23.040 51.344-51.344 0.016-28.304-23.024-51.344-51.344-51.344zM149.184 365.856c-17.024 0-30.88-13.856-30.88-30.88 0-17.040 13.856-30.88 30.88-30.88s30.896 13.856 30.896 30.88c0 17.024-13.856 30.88-30.896 30.88z" />
<glyph unicode="&#x23;" d="M295.84 138.576h-151.632c-5.232 0-9.472-4.24-9.472-9.472s4.24-9.472 9.472-9.472h151.616c5.232 0 9.472 4.24 9.472 9.472 0.016 5.232-4.224 9.472-9.456 9.472zM295.84 81.712h-151.632c-5.232 0-9.472-4.24-9.472-9.472 0-5.216 4.24-9.472 9.472-9.472h151.616c5.232 0 9.472 4.256 9.472 9.472 0.016 5.232-4.224 9.472-9.456 9.472zM295.84 195.424h-151.632c-5.232 0-9.472-4.24-9.472-9.456 0-5.232 4.24-9.488 9.472-9.488h151.616c5.232 0 9.472 4.256 9.472 9.488 0.016 5.216-4.224 9.456-9.456 9.456zM295.84 252.288h-151.632c-5.232 0-9.472-4.224-9.472-9.472 0-5.232 4.24-9.472 9.472-9.472h151.616c5.232 0 9.472 4.24 9.472 9.472 0.016 5.248-4.224 9.472-9.456 9.472zM295.84 309.136h-151.632c-5.232 0-9.472-4.224-9.472-9.472 0-5.232 4.24-9.472 9.472-9.472h151.616c5.232 0 9.472 4.24 9.472 9.472 0.016 5.264-4.224 9.472-9.456 9.472zM419.024 480h-246.384c-29.040 0-36.192-11.776-36.944-37.904h-0.96c-30.352 0-36.864-12.72-37.056-41.424-22.448-7.6-38.752-28.64-38.752-53.632v-322.192c0-31.36 25.504-56.864 56.864-56.864h208.48c28.64 0 52.16 21.36 56.064 48.96 20.736 3.168 34.848 12.496 34.848 36.336v1.136c22.416 2.704 37.904 11.76 37.904 36.768v341.152c-0.016 28.704-2.704 47.664-34.064 47.664zM343.216 24.864c0-10.48-8.48-18.96-18.96-18.96h-208.464c-10.48 0-18.96 8.48-18.96 18.96v322.176c0 10.464 8.48 18.96 18.96 18.96h208.48c10.48 0 18.96-8.496 18.96-18.96v-322.176zM396.208 53.28c0-9.76-5.856-17.504-15.088-18.544v312.304c0 31.36-25.504 56.864-56.864 56.864h-208.464c0 13.312 5.616 19.232 18.96 19.232h246.368c10.48 0 15.088 0.688 15.088-9.76v-360.096zM434.112 91.184c0-10.48-5.040-18.96-18.96-18.96v322.208c0 28.72-2.688 47.664-34.048 47.664h-227.376c0.096 13.088 5.696 18.96 18.912 18.96h246.384c10.48 0 15.088 0.688 15.088-9.76v-360.112z" />
<glyph unicode="&#x24;" d="M477.488 20.88h-442.976c-19.024 0-34.512 15.456-34.512 34.448v337.328c0 19.008 15.488 34.464 34.512 34.464h442.96c19.040 0 34.512-15.472 34.512-34.464v-337.312c0.016-19.008-15.472-34.464-34.496-34.464zM476.672 392.656l-442.16-0.864 0.816-336.448 441.344 0.88v336.432zM88.192 356.48c-9.744 0-17.664-10.544-17.664-23.552v-217.856c0-13.024 7.92-23.552 17.664-23.552 9.76 0 17.664 10.528 17.664 23.552v217.856c0 13.008-7.904 23.552-17.664 23.552zM150.016 356.48c-4.88 0-8.832-5.28-8.832-11.776v-241.408c0-6.496 3.952-11.76 8.832-11.76s8.832 5.264 8.832 11.76v241.392c0 6.512-3.952 11.792-8.832 11.792zM203.008 356.48c-4.88 0-8.832-5.28-8.832-11.776v-241.408c0-6.496 3.952-11.76 8.832-11.76s8.832 5.264 8.832 11.76v241.392c0 6.512-3.952 11.792-8.832 11.792zM256 356.48c-4.88 0-8.832-5.28-8.832-11.776v-241.408c0-6.496 3.952-11.76 8.832-11.76s8.832 5.264 8.832 11.76v241.392c0 6.512-3.952 11.792-8.832 11.792zM317.824 356.48c-9.744 0-17.664-10.544-17.664-23.552v-217.856c0-13.024 7.92-23.552 17.664-23.552 9.76 0 17.664 10.528 17.664 23.552v217.856c0 13.008-7.904 23.552-17.664 23.552zM379.648 356.48c-4.88 0-8.832-5.28-8.832-11.776v-241.408c0-6.496 3.952-11.76 8.832-11.76s8.832 5.264 8.832 11.76v241.392c0 6.512-3.952 11.792-8.832 11.792zM432.64 356.48c-4.88 0-8.832-5.28-8.832-11.776v-241.408c0-6.496 3.952-11.76 8.832-11.76s8.832 5.264 8.832 11.76v241.392c0 6.512-3.952 11.792-8.832 11.792z" />
<glyph unicode="&#x25;" d="M76.816 480h-51.2c-14.144 0-25.6-11.504-25.6-25.632v-51.2c0-14.128 11.456-25.6 25.6-25.6h51.2c14.128 0 25.6 11.472 25.6 25.6v51.2c-0.016 14.128-11.472 25.632-25.6 25.632zM281.6 480h-51.2c-14.128 0-25.6-11.504-25.6-25.632v-51.2c0-14.128 11.472-25.6 25.6-25.6h51.2c14.144 0 25.6 11.472 25.6 25.6v51.2c0 14.128-11.456 25.632-25.6 25.632zM486.384 480h-51.2c-14.128 0-25.6-11.504-25.6-25.632v-51.2c0-14.128 11.472-25.6 25.6-25.6h51.2c14.144 0 25.6 11.472 25.6 25.6v51.2c0 14.128-11.44 25.632-25.6 25.632zM76.816 275.184h-51.2c-14.144 0-25.6-11.472-25.6-25.632v-51.168c0-14.128 11.456-25.6 25.6-25.6h51.2c14.128 0 25.6 11.472 25.6 25.6v51.168c-0.016 14.16-11.472 25.632-25.6 25.632zM281.6 275.184h-51.2c-14.128 0-25.6-11.472-25.6-25.632v-51.168c0-14.128 11.472-25.6 25.6-25.6h51.2c14.144 0 25.6 11.472 25.6 25.6v51.168c0 14.16-11.456 25.632-25.6 25.632zM486.384 275.184h-51.2c-14.128 0-25.6-11.472-25.6-25.632v-51.168c0-14.128 11.472-25.6 25.6-25.6h51.2c14.144 0 25.6 11.472 25.6 25.6v51.168c0 14.16-11.44 25.632-25.6 25.632zM76.816 70.4h-51.2c-14.144 0-25.6-11.472-25.6-25.632v-51.168c0-14.128 11.456-25.6 25.6-25.6h51.2c14.128 0 25.6 11.472 25.6 25.6v51.168c-0.016 14.16-11.472 25.632-25.6 25.632zM281.6 70.4h-51.2c-14.128 0-25.6-11.472-25.6-25.632v-51.168c0-14.128 11.472-25.6 25.6-25.6h51.2c14.144 0 25.6 11.472 25.6 25.6v51.168c0 14.16-11.456 25.632-25.6 25.632zM486.384 70.4h-51.2c-14.128 0-25.6-11.472-25.6-25.632v-51.168c0-14.128 11.472-25.6 25.6-25.6h51.2c14.144 0 25.6 11.472 25.6 25.6v51.168c0 14.16-11.44 25.632-25.6 25.632z" />
<glyph unicode="&#x26;" d="M25.6 403.184h460.8c14.144 0 25.6 11.472 25.6 25.6s-11.456 25.632-25.6 25.632h-460.8c-14.128 0-25.6-11.504-25.6-25.632 0-14.112 11.472-25.6 25.6-25.6zM76.8 300.784h-51.2c-14.128 0-25.6-11.472-25.6-25.616v-51.184c0-14.128 11.472-25.6 25.6-25.6h51.2c14.144 0 25.6 11.472 25.6 25.6v51.184c0 14.144-11.456 25.616-25.6 25.616zM281.6 300.784h-51.2c-14.128 0-25.6-11.472-25.6-25.616v-51.184c0-14.128 11.472-25.6 25.6-25.6h51.2c14.144 0 25.6 11.472 25.6 25.6v51.184c0 14.144-11.456 25.616-25.6 25.616zM486.4 300.784h-51.2c-14.128 0-25.6-11.472-25.6-25.616v-51.184c0-14.128 11.472-25.6 25.6-25.6h51.2c14.144 0 25.6 11.472 25.6 25.6v51.184c0 14.144-11.456 25.616-25.6 25.616zM76.8 95.984h-51.2c-14.128 0-25.6-11.472-25.6-25.616v-51.184c0-14.128 11.472-25.6 25.6-25.6h51.2c14.144 0 25.6 11.472 25.6 25.6v51.184c0 14.144-11.456 25.616-25.6 25.616zM281.6 95.984h-51.2c-14.128 0-25.6-11.472-25.6-25.616v-51.184c0-14.128 11.472-25.6 25.6-25.6h51.2c14.144 0 25.6 11.472 25.6 25.6v51.184c0 14.144-11.456 25.616-25.6 25.616zM486.4 95.984h-51.2c-14.128 0-25.6-11.472-25.6-25.616v-51.184c0-14.128 11.472-25.6 25.6-25.6h51.2c14.144 0 25.6 11.472 25.6 25.6v51.184c0 14.144-11.456 25.616-25.6 25.616z" />
<glyph unicode="&#x27;" d="M25.6 403.184h460.8c14.144 0 25.6 11.472 25.6 25.6s-11.456 25.632-25.6 25.632h-460.8c-14.128 0-25.6-11.504-25.6-25.632s11.472-25.6 25.6-25.6zM76.8 300.784h-51.2c-14.128 0-25.6-11.472-25.6-25.632v-51.168c0-14.128 11.472-25.6 25.6-25.6h51.2c14.144 0 25.6 11.472 25.6 25.6v51.168c0 14.16-11.456 25.632-25.6 25.632zM486.4 249.584h-256c-14.128 0-25.584-11.472-25.6-25.616 0.016-14.112 11.472-25.584 25.6-25.584h256c14.144 0 25.584 11.472 25.6 25.584-0.016 14.144-11.456 25.616-25.6 25.616zM76.8 95.984h-51.2c-14.128 0-25.6-11.472-25.6-25.632v-51.168c0-14.128 11.472-25.6 25.6-25.6h51.2c14.144 0 25.6 11.472 25.6 25.6v51.168c0 14.16-11.456 25.632-25.6 25.632zM486.4 44.784h-256c-14.128 0-25.584-11.472-25.6-25.616 0.016-14.112 11.472-25.584 25.6-25.584h256c14.144 0 25.584 11.472 25.6 25.584-0.016 14.144-11.456 25.616-25.6 25.616z" />
<glyph unicode="&#x28;" d="M163.056 433.664h185.904v-47.424h-185.904v47.424zM163.056 480h185.904v-24.064h-185.904v24.064zM479.792 131.616l-22.256-117.28h-403.056l-22.272 117.28h-32.208v-163.616h512v163.616zM443.216 293.968h-94.272v69.648h-185.888v-69.648h-94.16l186.256-188.448z" />
<glyph unicode="&#x29;" d="M404.928 281.248h-25.12v82.256c0 64.24-55.536 116.496-123.808 116.496s-123.824-52.256-123.824-116.496v-82.256h-25.104c-20.112 0-40.592-20.496-40.592-40.608v-232.048c0-20.112 20.48-40.592 40.592-40.592h297.872c20.112 0 40.592 20.48 40.592 40.592v232.048c-0.016 20.128-20.496 40.608-40.608 40.608zM275.536 111.536v-12.608c0-5.904-4.752-10.72-10.56-10.72-5.84 0-10.576 4.816-10.576 10.72v12.608c-12.624 4.368-21.728 16.16-21.728 30.192 0 17.744 14.464 32.096 32.304 32.096 17.824 0 32.288-14.368 32.288-32.096 0-14.048-9.104-25.84-21.728-30.192zM341.184 281.248h-170.384v82.256c0 42.928 38.224 77.856 85.2 77.856 46.96 0 85.184-34.928 85.184-77.856v-82.256z" />
<glyph unicode="&#x2a;" d="M460.8 45.184c-0.080-6.096-2.208-25.984-25.6-25.984l-357.296-0.032c-9.968 0.56-26.704 4.64-26.704 25.632l-0.048 356.848c0.592 8.16 4.288 27.152 25.648 27.152h204.8v51.2h-204.8c-53.536 0-75.232-45.168-76.8-76.8v-358.4c0-54.544 45.44-75.792 76.8-76.8h358.4c55.504 0 76.336 45.696 76.8 76.8v204.8h-51.2v-204.416zM332.8 480l64-64-192-192 51.2-51.2 192 192 64-64v179.2z" />
<glyph unicode="&#x2b;" d="M430.848 351.536c-6.688 12.336-22.656 38.176-43.136 46.816-3.488 7.376-8.56 17.408-15.68 31.472-0.944 1.856-2.176 3.552-3.648 5.024l-19.696 19.696c-3.696 3.696-8.704 5.776-13.92 5.776h-39.728c-0.864 0.32-3.312 2.608-4.928 4.144-6.144 5.808-16.432 15.536-34.112 15.536-17.696 0-28.016-9.728-34.208-15.552-1.6-1.504-4.032-3.808-5.184-4.144-22.144 0-55.024-28.064-72.64-44.8-3.872-3.68-6.096-8.784-6.128-14.128-0.272-35.312-0.448-58.72-0.336-74.656-30.672-9.984-46.976-39.648-47.776-41.168-0.704-1.36-1.040-2.864-1.088-4.4-1.264-1.184-2.768-2.528-3.904-3.632-3.824-3.712-5.984-8.816-5.984-14.128v-157.536c0-6.208 2.912-12.032 7.872-15.744l70.896-53.168v-49.232c0-10.88 8.816-19.696 19.696-19.696s19.696 8.816 19.696 19.696v47.136h39.392c5.44 0 9.84 4.4 9.84 9.84s-4.4 9.84-9.84 9.84h-41.216c-1.344 3.104-3.264 5.92-6.048 8l-62.96 47.216-7.92 7.92v137.184c15.904 14.448 33.76 27.248 39.392 28.224 3.664 0 6.912 1.264 9.84 3.024v-71.936c0-20.944 44.272-53.952 63.312-67.168 1.648-1.152 3.6-1.76 5.616-1.76h19.68c5.44 0 9.84 4.4 9.84 9.84s-4.4 9.84-9.84 9.84h-16.592c-27.424 19.392-51.584 42.080-52.336 49.232v186.848c12.976 10.656 25.28 19.056 29.536 19.936 3.632 0 6.832 0.592 9.84 1.36v-168.752c0-5.44 4.4-9.84 9.84-9.84s9.84 4.4 9.84 9.84v171.008c5.936 2.736 13.024 5.744 20.112 8.432 4.496-4.032 10.656-8.512 19.264-10.688v-168.752c0-5.44 4.4-9.84 9.84-9.84s9.84 4.4 9.84 9.84v167.392h21.376l11.696-11.696c1.408-2.8 3.792-7.504 6.304-12.464v-143.216c0-5.44 4.4-9.84 9.84-9.84s9.84 4.4 9.84 9.84v110.592c2.496-1.28 5.232-2.096 8.272-2.096 4.432-1.648 14.112-13.232 21.264-25.12v-222.928l-53.312-53.312c-3.696-3.696-5.776-8.704-5.776-13.92v-59.072c0-10.88 8.816-19.696 19.696-19.696s19.696 8.816 19.696 19.696v50.928l53.312 53.312c3.696 3.696 5.776 8.704 5.776 13.92v236.304c0.064 3.28-0.752 6.496-2.32 9.376z" />
<glyph unicode="&#x2c;" d="M505.056 258.448l-58.080 19.36v149.248h-0.256c0.048 1.664 0.272 3.136 0.256 4.864-0.144 11.136-9.2 20.064-20.304 20.064-0.096 0-0.176 0-0.256 0-11.216-0.144-20.208-9.344-20.064-20.56 0.176-13.584-2.496-18.848-3.536-20.384-0.88-0.16-1.744-0.368-2.592-0.64l-386.032-121.888c-8.448-2.672-14.192-10.512-14.192-19.376v-81.264c0-8.864 5.744-16.704 14.192-19.376l117.872-37.216v-104.784c0-19.36 11.104-30.48 30.48-30.48h4.208l20.48 20.48c17.792 1.312 26.112 11.040 26.112 30.32v58.784l186.896-59.024c0.672-0.208 1.328-0.368 2-0.528 1.040-1.328 4.112-6.448 4.112-20.736 0-11.216 9.104-20.32 20.32-20.32s20.32 9.104 20.32 20.32c0 1.696-0.24 3.008-0.32 4.608h0.32v149.28l58.080 19.36c4.128 1.376 6.928 5.248 6.928 9.632v40.64c0 4.368-2.8 8.24-6.944 9.616zM40.64 254.24l60.944 19.248v-89.984l-60.944 19.264v51.472zM193.008 46.8c0-9.392-0.768-10.16-10.16-10.16h-4.208l-20.080-20.096c-4.928 0.704-6.176 3.2-6.176 9.936v98.368l40.64-12.832v-65.216zM121.904 177.088v102.816l284.448 89.824v-282.464l-284.448 89.824zM491.68 215.504l-40.64-13.536v53.072l40.64-13.536v-26z" />
<glyph unicode="&#x2d;" d="M512 246.992c0 92.864-91.040 165.616-207.264 165.616-84.464 0-150.912-41.568-177.056-104.624-73.552-13.296-127.68-69.456-127.68-134.688 0-76.048 72.24-137.904 161.024-137.904 45.088 0 88.432 16.4 118.912 45.024 0.656 0.624 0.96 1.44 1.504 2.128 7.6-0.672 15.328-1.12 23.28-1.12 21.296 0 42.464 2.608 63.024 7.792l72.96-42.128-0.336 74.288c45.664 31.36 71.632 76.656 71.632 125.616zM161.024 71.456c-68.896 0-124.96 45.68-124.96 101.84 0 42.784 33.408 80.384 81.008 95.072-0.944-7.152-1.584-14.416-1.584-21.904 0-75.248 46.784-132.752 119.584-154.944-21.328-12.912-47.216-20.064-74.048-20.064zM412.832 146.48l-8.624-5.312 0.144-31.424-31.632 18.256-7.328-2.080c-19.68-5.584-40.080-8.416-60.656-8.416-90.176 0-153.168 53.040-153.168 128.96 0 13.248 2 25.76 5.6 37.472 0.832 1.648 1.392 3.344 1.696 5.2 18.928 53.040 73.632 87.408 145.872 87.408 94.4 0 171.2-58.112 171.2-129.552 0-39.168-23.008-75.808-63.104-100.512zM245.36 273.712c-14.912 0-27.056-12.144-27.056-27.072 0-14.912 12.128-27.056 27.056-27.056 14.912 0 27.056 12.144 27.056 27.056 0 14.928-12.128 27.072-27.056 27.072zM245.36 237.616c-4.976 0-9.024 4.048-9.024 9.024 0 5.008 4.048 9.040 9.024 9.040 4.992 0 9.024-4.032 9.024-9.040 0-4.976-4.032-9.024-9.024-9.024zM317.504 273.712c-14.912 0-27.056-12.144-27.056-27.072 0-14.912 12.128-27.056 27.056-27.056 14.912 0 27.056 12.144 27.056 27.056 0 14.928-12.128 27.072-27.056 27.072zM317.504 237.616c-4.976 0-9.024 4.048-9.024 9.024 0 5.008 4.048 9.040 9.024 9.040 4.992 0 9.024-4.032 9.024-9.040 0-4.976-4.032-9.024-9.024-9.024zM389.648 273.712c-14.912 0-27.056-12.144-27.056-27.072 0-14.912 12.128-27.056 27.056-27.056 14.912 0 27.056 12.144 27.056 27.056 0 14.928-12.128 27.072-27.056 27.072zM389.648 237.616c-4.976 0-9.024 4.048-9.024 9.024 0 5.008 4.048 9.040 9.024 9.040 4.992 0 9.024-4.032 9.024-9.040 0-4.976-4.032-9.024-9.024-9.024z" />
<glyph unicode="&#x2e;" d="M232.688 386.896h46.544c12.864 0 23.296 10.432 23.296 23.264v46.56c0 12.848-10.432 23.28-23.296 23.28h-46.544c-12.832 0-23.264-10.432-23.264-23.264v-46.56c-0.016-12.848 10.416-23.28 23.264-23.28zM325.808 14.592h-23.296v255.872c0 0.048 0.016 0.064 0.016 0.112 0 12.864-10.416 23.264-23.264 23.264h-93.088c-12.864 0-23.264-10.416-23.264-23.264s10.416-23.296 23.264-23.296h23.232v-232.688h-23.232c-12.864 0-23.264-10.416-23.264-23.264s10.416-23.296 23.264-23.296h46.384c0.048 0 0.064-0.016 0.112-0.016h46.544c0.048 0 0.064 0.016 0.112 0.016h46.48c12.864 0 23.264 10.448 23.264 23.296 0.016 12.848-10.4 23.264-23.264 23.264z" />
<glyph unicode="&#x2f;" d="M108.304 332.304c-59.712 0-108.304-48.576-108.304-108.304s48.592-108.304 108.304-108.304 108.304 48.592 108.304 108.304-48.576 108.304-108.304 108.304zM108.304 155.072c-38 0-68.928 30.928-68.928 68.928s30.928 68.928 68.928 68.928 68.928-30.928 68.928-68.928-30.928-68.928-68.928-68.928zM403.696 332.304c-59.728 0-108.304-48.592-108.304-108.304s48.592-108.304 108.304-108.304 108.304 48.576 108.304 108.304-48.592 108.304-108.304 108.304zM403.696 155.072c-38 0-68.928 30.928-68.928 68.928s30.928 68.928 68.928 68.928 68.928-30.928 68.928-68.928-30.928-68.928-68.928-68.928zM297.68 294.32c-8.752 8.704-22.288 8.592-36.56 8.48l-5.12-0.032-5.12 0.032c-14.4 0.048-27.792 0.208-36.56-8.48-5.008-4.976-7.552-12.064-7.552-21.088h19.696c0 2.464 0.304 5.68 1.728 7.104 2.944 2.928 13.392 2.864 22.528 2.768l5.28-0.032 5.28 0.032c9.12 0.096 19.584 0.16 22.528-2.768 1.44-1.424 1.728-4.64 1.728-7.104h19.696c0 9.024-2.544 16.112-7.552 21.088zM108.304 263.392v-19.696c10.864 0 19.696-8.832 19.696-19.696h19.696c0 21.728-17.664 39.392-39.392 39.392zM408.832 263.392v-19.696c10.848 0 19.696-8.832 19.696-19.696h19.696c-0.016 21.728-17.68 39.392-39.392 39.392z" />
<glyph unicode="&#x30;" d="M97.904-17.648l21.664 172.096-119.568 126.72 171.744 32.784 84.256 151.696 84.272-151.696 171.728-32.784-119.568-126.72 21.664-172.080-158.096 73.632-158.096-73.648zM256 107.456l101.28-47.168-13.872 110.176 76.288 80.848-109.616 20.912-54.080 97.344-54.064-97.36-109.6-20.912 76.288-80.848-13.872-110.16 101.248 47.168z" />
<glyph unicode="&#x31;" d="M415.328 332.192h-101.024c36.304 9.92 77.92 27.392 87.84 56.72 6.72 19.824-1.296 40.992-23.808 62.928-18.88 18.416-38.88 28.16-57.808 28.16-29.6 0-51.776-21.456-64.288-59.984-12.512 38.528-34.672 59.984-64.288 59.984-18.928 0-38.928-9.744-57.824-28.16-22.496-21.936-30.512-43.12-23.808-62.928 9.92-29.312 51.552-46.8 87.84-56.72h-101.488c-22.544 0-45.52-22.992-45.52-45.552v-273.12c-0.016-22.544 22.96-45.52 45.52-45.52h318.672c22.544 0 45.52 22.976 45.52 45.52v273.12c0 22.56-22.976 45.552-45.536 45.552zM221.856 13.52v273.152h68.288v-273.136h-68.288zM320.528 457.232c12.864 0 27.376-7.504 41.936-21.696 15.696-15.296 21.792-28.528 18.144-39.328-8.752-25.824-69.28-43.808-112.992-50.88 0 0.080 0 0.16 0 0.24 2.32 68.288 22.56 111.664 52.912 111.664zM131.888 396.208c-3.664 10.8 2.448 24.032 18.144 39.328 14.56 14.192 29.072 21.696 41.936 21.696 30.352 0 50.608-43.376 52.912-111.68 0-0.080 0-0.16 0-0.24-43.712 7.056-104.24 25.040-112.992 50.896zM96.672 15.552v269.088c0.528 0.704 1.328 1.52 2.032 2.032h100.4v-273.136h-100.4c-0.704 0.512-1.52 1.328-2.032 2.016zM415.328 15.552c-0.528-0.704-1.328-1.504-2.016-2.016h-100.4v273.136h100.4c0.704-0.528 1.504-1.328 2.016-2.016v-269.104z" />
<glyph unicode="&#x32;" d="M280.592 296.896v80.128c0 0-0.816 29.696 34 29.696h51.056l0.304 73.152h-51.488c0 0-107.392 8.048-107.392-105.168 0-24.224 0-77.824 0-77.824h-72.912l0.192-60.992h72.704l0.048-267.888h73.088v267.904h80.464l17.2 60.992h-97.264z" />
<glyph unicode="&#x33;" d="M512 382.112c-18.848-8.336-39.072-13.936-60.336-16.496 21.696 12.944 38.336 33.504 46.208 57.904-20.288-12.016-42.8-20.688-66.704-25.392-19.168 20.32-46.464 33.024-76.688 33.024-58 0-105.040-46.816-105.040-104.624 0-8.128 0.912-16.16 2.72-23.808-87.296 4.4-164.688 46-216.496 109.248-9.040-15.408-14.224-33.376-14.224-52.544 0-36.288 18.544-68.304 46.72-87.040-17.2 0.528-33.408 5.248-47.568 13.104-0.016-0.432-0.016-0.864-0.016-1.36 0-50.688 36.224-92.928 84.272-102.544-8.816-2.384-18.096-3.632-27.68-3.632-6.736 0-13.36 0.624-19.76 1.872 13.36-41.584 52.176-71.84 98.128-72.64-35.968-28.048-81.248-44.8-130.448-44.8-8.464 0-16.832 0.496-25.072 1.488 46.512-29.68 101.712-47.024 161.040-47.024 193.216 0 298.864 159.392 298.864 297.584 0 4.544-0.112 9.072-0.288 13.552 20.512 14.736 38.272 33.168 52.368 54.128z" />
<glyph unicode="&#x34;" d="M446.96 395.648v66.016h-22.256v-66.016h-65.824v-22.048h65.808v-65.28h22.256v65.28h65.056v22.048h-65.040zM300.768 461.28c0 0-107.344 0-143.12 0-64.16 0-124.576-51.84-124.576-108.144 0-57.552 43.728-105.6 109.008-105.6 4.528 0 8.944-0.72 13.264-0.4-4.208-8.112-7.248-17.648-7.248-27.136 0-16 8.608-29.168 19.488-39.76-8.224 0-16.176-0.336-24.816-0.336-79.456 0.016-142.768-50.656-142.768-103.152 0-51.696 69.184-90.416 148.688-90.416 90.592 0 139.584 57.744 139.584 109.472 0 41.424-11.2 66.24-49.008 92.992-12.928 9.152-37.664 31.44-37.664 44.528 0 15.344 4.368 22.912 27.472 40.96 23.664 18.496 42 42.32 42 72.576 0 36.016-17.648 63.568-47.744 80.512h45.376l32.064 33.904zM250.784 104.704c1.12-4.8 1.76-9.728 1.76-14.768 0-41.76-26.944-70.176-104.16-70.176-54.944 0-94.624 30.56-94.624 72.32 0 40.928 49.216 75.024 104.16 74.448 12.8-0.144 24.736-2.224 35.6-5.728 29.84-20.752 51.216-32.48 57.264-56.096zM162.8 260.512c-36.88 1.088-71.904 41.248-78.256 89.68-6.368 48.448 18.352 85.472 55.2 84.384 36.88-1.088 73.52-39.968 79.888-88.368 6.384-48.448-19.984-86.784-56.832-85.696z" />
<glyph unicode="&#x35;" d="M506.88 327.168c0 0-4.992 35.552-20.352 51.216-19.472 20.544-41.296 20.656-51.312 21.856-71.648 5.216-179.12 5.216-179.12 5.216h-0.224c0 0-107.472 0-179.136-5.216-9.984-1.2-31.792-1.312-51.28-21.856-15.344-15.664-20.336-51.216-20.336-51.216s-5.12-41.76-5.12-83.504v-39.152c0-41.744 5.12-83.52 5.12-83.52s4.992-35.552 20.336-51.216c19.488-20.56 45.072-19.904 56.448-22.048 40.96-3.952 174.080-5.184 174.080-5.184s107.584 0.176 179.232 5.392c10.016 1.2 31.856 1.296 51.312 21.856 15.344 15.664 20.352 51.216 20.352 51.216s5.12 41.76 5.12 83.52v39.152c0 41.728-5.12 83.488-5.12 83.488zM202.528 152.464v145.328l136.064-71.2-136.064-74.128z" />
<glyph unicode="&#x36;" d="M260.512 479.968c90.272 1.232 153.808-42.736 180.768-103.872 5.44-12.336 9.36-25.488 12.448-40.688 1.376-6.816 0.416-13.664 1.632-21.232 0.864-5.424 0.48-13.52-0.416-18.848-0.592-7.328-1.216-14.704-1.84-22.064-3.088-16.384-5.76-31.568-10.384-45.936-9.024-28.128-23.616-49.856-40.16-70.272-16.96-20.912-46.832-37.376-78.064-44.336-17.184-3.84-40.816-3.424-56.24 1.424-13.92 4.352-28.848 11.68-37.088 21.856-2.592 3.216-4.816 7.6-7.744 10.528 0-0.144 0-0.272 0-0.416-6.928-26.912-13.872-53.856-20.8-80.784-7.328-24.224-18.544-44.48-30.752-63.76-6-9.44-12.336-18.24-18.96-26.928-1.6-2.128-4.72-8.88-9.168-5.872-3.088 2.080-3.2 18.416-4.080 23.696-3.792 22.432-3.232 59.312 1.232 80.368 13.44 56.736 26.88 113.536 40.336 170.272-1.44 3.648-2.848 7.296-4.288 10.944-2.096 6.64-3.136 13.808-4.496 21.264-1.152 6.432-1.488 15.264-0.4 21.856 0.928 5.68 0.768 10.528 2.048 15.6 5.888 23.264 17.712 42.192 38.704 50.416 32.496 12.72 61.456-14.112 55.648-48.4-1.52-8.96-2.48-17.424-4.896-25.52-8.080-26.864-17.6-51.632-22.416-80.992-1.488-9.040 2.416-18.272 5.52-23.472 9.408-15.84 29.664-29.28 56.832-22.496 6.528 1.648 12.896 4.016 18.144 7.104 28.752 16.96 44.768 48.928 54.208 85.024 2.304 8.864 3.104 17.68 4.88 27.344 3.952 21.36 3.632 50.832-2.016 69.648-7.472 24.784-21.008 43.328-39.968 56.672-11.296 7.952-24.8 13.264-39.92 17.424-26.512 7.264-63.952 4.32-87.44-3.056-51.312-16.112-83.456-53.312-95.184-108.928-4.864-23.152-1.408-52.416 7.744-68.032 2.24-3.504 4.496-7.024 6.736-10.528 2.864-3.808 7.264-7.072 8.336-12.56 0.832-4.128-1.2-8.112-2.016-11.12-2.704-9.584-3.008-26.272-13.264-28.352-6.496-1.312-18.848 6.88-22.624 9.52-21.264 14.896-33.504 37.296-40.752 66.208-2 7.936-1.84 15.952-3.248 24.88-1.568 9.84-1.104 22.8 0.624 32.192 1.792 9.68 3.2 18.928 5.92 27.584 16.496 52.304 54.416 94.624 102.304 115.6 18 7.888 37.088 13.44 59.104 17.824 8.688 0.944 17.392 1.904 26.080 2.816 3.12 0.144 6.24 0.256 9.376 0.4z" />
<glyph unicode="&#x37;" d="M452.928 263.408h-44.576c3.232-12.608 5.152-25.792 5.152-39.424 0-86.992-70.512-157.536-157.504-157.536-87.024 0-157.552 70.528-157.552 157.536 0 13.632 1.936 26.816 5.168 39.424h-44.576v-216.656c0-10.848 8.832-19.68 19.728-19.68h354.448c10.912 0 19.728 8.832 19.728 19.68v216.656zM452.928 401.248c0 10.88-8.8 19.696-19.728 19.696h-59.056c-10.864 0-19.696-8.832-19.696-19.696v-59.072c0-10.896 8.832-19.696 19.696-19.696h59.056c10.912 0 19.728 8.8 19.728 19.696v59.072zM256 322.464c-54.4 0-98.48-44.080-98.48-98.48 0-54.368 44.080-98.464 98.48-98.464 54.352 0 98.464 44.096 98.464 98.464 0 54.4-44.112 98.48-98.464 98.48zM452.928-32h-393.888c-32.608 0-59.056 26.448-59.056 59.072v393.872c0 32.608 26.448 59.056 59.056 59.056h393.888c32.64 0 59.072-26.448 59.072-59.056v-393.872c0.016-32.624-26.432-59.072-59.072-59.072z" />
<glyph unicode="&#x38;" d="M196.928 322.464l-196.928-196.928 51.712-51.712 198.432 198.416 210.144-198.416 51.712 51.712-263.36 248.64z" />
<glyph unicode="&#x39;" d="M354.464 283.072l-196.928 196.928-51.712-51.712 198.416-198.432-198.416-210.144 51.712-51.712 248.64 263.36z" />
<glyph unicode="&#x3a;" d="M315.072 125.536l196.928 196.928-51.712 51.712-198.432-198.416-210.144 198.416-51.712-51.712 263.36-248.64z" />
<glyph unicode="&#x3b;" d="M157.536 164.928l196.928-196.928 51.712 51.712-198.416 198.432 198.416 210.144-51.712 51.712-248.64-263.36z" />
<glyph unicode="&#x3c;" d="M0 36.912h512v59.072h-512v-59.072zM0 411.088v-59.072h512v59.072h-512zM0 194.448h512v59.088h-512v-59.088z" />
<glyph unicode="&#x3d;" d="M436.423 371.945l-37.45 37.45-142.974-142.974-142.974 142.974-37.45-37.45 143.692-143.704-143.692-152.186 37.45-37.45 142.974 151.433 142.974-151.433 37.45 37.45-143.692 152.186z" />
<glyph unicode="&#x3e;" d="M508.88 333.488c4.16 4.128 4.16 11.28 0 15.408l-74.608 74.624c-4.16 4.128-11.248 4.128-15.408 0l-226.832-227.424-98.912 99.472c-4.128 4.16-11.248 4.16-15.376 0l-74.64-74.592c-4.128-4.16-4.128-11.28 0-15.408l181.248-181.216c2.352-1.808 4.736-2.96 7.696-2.96 2.976 0 5.328 1.152 7.696 2.96l309.136 309.136z" />
<glyph unicode="&#x3f;" d="M501.28 22.64l-125.264 125.296c25.84 34.672 41.344 77.456 41.344 124.080 0.016 114.896-93.104 207.984-207.984 207.984-114.864 0-208.016-93.088-208.016-207.984s93.152-208.016 208.016-208.016c45.168 0 86.864 14.576 120.944 39.040l125.696-125.616c12.464-12.56 32.752-12.56 45.264 0 12.48 12.464 12.48 32.752 0 45.216zM209.376 128.032c-79.568 0-144.048 64.432-144.048 143.984s64.464 144.048 144.048 144.048c79.52 0 143.984-64.496 143.984-144.048s-64.464-143.984-143.984-143.984z" />
<glyph unicode="&#x40;" d="M73.136 77.696h268.192l-73.136 146.256-73.136-97.52-48.768 73.136-73.152-121.872zM97.52 272.768c13.472 0 24.384-10.944 24.384-24.432 0-13.424-10.912-24.384-24.384-24.384-13.456 0-24.384 10.96-24.384 24.384 0 13.472 10.928 24.432 24.384 24.432zM463.232 443.424h-341.328c-26.928 0-48.768-21.84-48.768-48.768-26.928 0-48.768-21.84-48.768-48.768v-6.768c-14.512-8.432-24.368-23.984-24.368-41.984v-243.856c0-26.88 21.84-48.72 48.768-48.72h316.96c18 0 33.568 9.888 42 24.384h6.768c26.928 0 48.768 21.808 48.768 48.736v0.032c26.928 0 48.768 21.808 48.768 48.736v268.224c-0.032 26.928-21.872 48.752-48.8 48.752zM365.712 53.328l-316.944-0.048v243.856h316.96v-243.808zM414.48 60.080v237.056c0 26.928-21.84 48.768-48.768 48.768h-310.192c8.448 14.496 24 24.352 42 24.352h292.576c26.96 0 48.768-21.808 48.768-48.736v-219.424c0-18-9.872-33.568-24.384-42.016zM487.616 150.864c0-18-9.856-33.568-24.384-42.016v237.056c0 26.928-21.84 48.768-48.768 48.768h-310.176c8.448 14.496 24 24.352 42 24.352h292.576c26.96 0 48.768-21.808 48.768-48.736v-219.424z" />
<glyph unicode="&#x41;" d="M350.112 480.080l60.352-60.352-189.952-201.184 190.096-190.128-60.352-60.336-248.72 248.72 248.576 263.28zM389.104 419.424l-38.672 38.672-227.504-240.992 227.36-227.36 38.656 38.672-189.792 189.824 189.952 201.184z" />
<glyph unicode="&#x42;" d="M161.888-32.080l-60.352 60.352 189.952 201.184-190.096 190.128 60.352 60.336 248.72-248.72-248.576-263.28zM122.896 28.576l38.672-38.672 227.504 240.992-227.36 227.36-38.656-38.672 189.792-189.824-189.952-201.184z" />
<glyph unicode="&#x43;" d="M437.68 459.728l47.584-47.584-182.592-182.608 182.608-193.376-47.584-47.584-181.696 192.416-181.696-192.432-47.584 47.6 182.608 193.392-182.608 182.592 47.584 47.584 181.696-181.68 181.68 181.68zM74.304 480l-67.84-67.856 182.896-182.88-182.608-193.408 67.856-67.856 181.392 192.128 181.392-192.128 67.856 67.856-182.592 193.392 182.88 182.896-67.856 67.856-181.68-181.68-181.696 181.68z" />
<glyph unicode="&#x44;" d="M256-32c-141.152 0-256 114.848-256 256s114.848 256 256 256 256-114.848 256-256c0-141.152-114.848-256-256-256zM256 432c-114.688 0-208-93.312-208-208 0-114.672 93.312-208 208-208s208 93.312 208 208c0 114.688-93.312 208-208 208zM342.208 100.512l33.952 33.952-86.816 91.936 86.976 86.976-33.936 33.936-86.384-86.368-86.368 86.368-33.952-33.936 86.976-86.976-86.816-91.936 33.952-33.952 86.208 91.312 86.208-91.312z" />
<glyph unicode="&#x45;" d="M256 480c-141.152 0-256-114.848-256-256s114.848-256 256-256 256 114.848 256 256c0 141.152-114.848 256-256 256zM407.088 289.408l-184.704-184.688c-1.408-1.072-2.816-1.76-4.592-1.76-1.76 0-3.184 0.688-4.592 1.76l-108.288 108.272c-2.464 2.464-2.464 6.72 0 9.2l44.592 44.56c2.464 2.48 6.72 2.48 9.184 0l59.088-59.424 135.52 135.856c2.48 2.464 6.72 2.464 9.2 0l44.576-44.576c2.496-2.464 2.496-6.736 0.016-9.2z" />
<glyph unicode="&#x46;" d="M128 160l128 140.112 128-140.112z" />
<glyph unicode="&#x47;" d="M384 288l-128-140.112-128 140.112z" />
<glyph unicode="&#x48;" d="M128 240l128 140.112 128-140.112h-256zM128 192l128-140.112 128 140.112h-256z" />
<glyph unicode="&#x49;" d="M97.904-17.648l21.664 172.096-119.568 126.72 171.744 32.784 84.24 151.696 84.272-151.696 171.744-32.784-119.568-126.72 21.664-172.080-158.112 73.632-158.080-73.648z" />
<glyph unicode="&#x4a;" d="M302.256 480l186.176-186.176-186.176-186.192c0 0-1.616 93.088 0 93.088 4.848 46.896-301.328 50.224-139.632-232.72-218.272 124.496-185.36 431.84 139.632 418.912 1.616-1.616 0 93.088 0 93.088z" />
<glyph unicode="&#x4b;" d="M326.544 128.032l33.312 32.592v-192.624l-103.856 94.4-103.84-94.4v192.624l33.312-32.592v-88.928l70.528 62.688 70.528-62.672v88.912zM447.408 297.952l-26.928-53.44-9.616-59.072-53.216-27.392-42.496-42.128-59.152 9.088-59.152-9.088-42.512 42.128-53.184 27.392-9.616 59.072-26.944 53.44 26.944 53.44 9.616 59.072 53.2 27.392 42.512 42.144 59.136-9.104 59.152 9.104 42.496-42.128 53.216-27.392 9.616-59.072 26.928-53.456zM410.832 297.952l-21.984 44.416-7.584 46.592-43.888 23.008-33.52 33.232-47.856-7.36-47.84 7.36-35.44-34.624-41.968-21.616-8.336-48.848-21.248-42.16 21.984-44.416 7.584-46.592 43.888-23.008 33.52-33.248 47.84 7.36 47.856-7.36 35.44 34.64 41.968 21.616 8.32 48.848 21.264 42.16zM215.856 361.728c-28.896-15.536-45.808-51.36-46.4-98.272 0 0 31.408 70.56 54.592 83.040 16.304 8.8 38.384 5.984 53.216-3.888-18.368 18.080-39.344 30.96-61.408 19.12z" />
<glyph unicode="&#x4c;" d="M73.136 288.88c-6.736 0-12.192-5.456-12.192-12.192v-146.288c0-6.736 5.456-12.192 12.192-12.192h24.384c6.736 0 12.192 5.456 12.192 12.192v146.288c0 6.736-5.456 12.192-12.192 12.192h-24.384zM182.864 288.88c-6.736 0-12.192-5.456-12.192-12.192v-146.288c0-6.736 5.456-12.192 12.192-12.192h24.384c6.736 0 12.192 5.456 12.192 12.192v146.288c0 6.736-5.456 12.192-12.192 12.192h-24.384zM304.768 288.88c-6.736 0-12.192-5.456-12.192-12.192v-146.288c0-6.736 5.456-12.192 12.192-12.192h24.384c6.736 0 12.192 5.456 12.192 12.192v146.288c0 6.736-5.456 12.192-12.192 12.192h-24.384zM414.48 288.88c-6.736 0-12.192-5.456-12.192-12.192v-146.288c0-6.736 5.456-12.192 12.192-12.192h24.384c6.736 0 12.192 5.456 12.192 12.192v146.288c0 6.736-5.456 12.192-12.192 12.192h-24.384zM60.848 313.632h390.384c11.584 0.256 21.584 8 23.76 18.4 0.912 4.288 2.208 19.024-18.224 28.56l-182.72 97.44c-6.24 3.44-11.712 5.728-18.112 5.728-6.832 0-12.72-2.768-17.888-5.648l-181.92-97.088c-16.912-7.248-20.992-19.6-19.152-28.768 2.128-10.672 12.128-18.512 23.872-18.624zM66.672 339.056l183.056 97.648c4.16 2.32 5.68 2.672 6.208 2.672 0.656 0 2.304-0.48 6.496-2.784l183.44-97.808c0.56-0.256 1.056-0.512 1.52-0.768l-382.64 0.144c0.56 0.288 1.2 0.592 1.92 0.896zM475.424 57.392c0 20.16-16.4 36.576-36.576 36.576h-365.712c-20.16 0-36.576-16.4-36.576-36.576-20.16 0-36.56-16.4-36.56-36.576 0-20.16 16.4-36.576 36.576-36.576h438.864c20.16 0 36.576 16.4 36.576 36.576-0.016 20.176-16.416 36.576-36.592 36.576zM73.136 69.584h365.712c6.736 0 12.192-5.456 12.192-12.192h-390.080c0 6.72 5.456 12.192 12.176 12.192zM475.424 8.624h-438.848c-6.736 0-12.192 5.456-12.192 12.192 0 6.72 5.456 12.192 12.192 12.192h24.096c1.392-0.048 2.624-0.064 3.776-0.064l3.056 0.032c1.408 0.016 3.12 0.048 5.632 0.048h365.712c2.272 0 3.552-0.032 4.608-0.064 1.12-0.032 2.048-0.064 3.184-0.064 1.184 0 2.704 0.048 4.768 0.144h24c6.736 0 12.192-5.456 12.192-12.192 0.016-6.752-5.44-12.224-12.176-12.224z" />
<glyph unicode="&#x4d;" d="M512 202.32v51.616l-58.784 19.584v162.752c0.096 2.272 0.368 4.368 0.336 6.784-0.080 6.624-6.064 11.728-12.16 11.856-6.64-0.080-11.952-5.52-11.872-12.16 0.288-24.032-7.216-30.4-9.392-30.8-1.12 0.24-2.496-0.192-3.696-0.56l-408.032-128.864c-5.008-1.584-8.4-6.208-8.4-11.456v-85.904c0-5.248 3.392-9.872 8.4-11.456l132.48-41.84v-117.296c0-14.144 6.224-21.488 21.472-21.488l21.472 21.488c15.568 0 21.472 5.216 21.472 21.456v75.504l211.152-66.672c1.008-0.336 1.344-0.448 2.4-0.496 3.696-0.704 10.688-8.096 10.688-31.024 0-6.64 5.376-12.016 12.016-12.016s12.016 5.376 12.016 12.016c0 3.104-0.128 6-0.336 8.768v160.608l58.768 19.6zM193.28 36.032c0-9.264-0.176-9.44-9.456-9.44h-4.976l-21.168-21.184c-3.968 0.736-4.784 3.024-4.784 9.168v112.176l40.4-13.456v-77.264zM499.984 245.28v-34.304l-46.768-15.584v65.472l46.768-15.584zM24.032 262.272l85.904 27.12v-122.56l-85.904 27.12v68.32zM422.88 68.016l-302.208 95.44v129.328l301.792 95.296c1.84 0.24 4.464 0.816 7.424 2.096v-324.48c-2.832 1.328-5.312 2-7.008 2.32z" />
<glyph unicode="&#x4e;" d="M474.080 427.856h-189.632c-11.376 0-21.488-5.136-28.448-13.104-6.96 7.968-17.072 13.104-28.448 13.104h-189.632c-20.912 0-37.92-17.008-37.92-37.936v-331.84c0-20.912 17.008-37.92 37.92-37.92h189.632c11.376 0 21.488 5.136 28.448 13.104 6.96-7.968 17.072-13.104 28.448-13.104h189.632c20.912 0 37.92 17.008 37.92 37.92v331.84c0 20.928-17.008 37.936-37.92 37.936zM227.552 39.104h-189.632c-10.464 0-18.96 8.512-18.96 18.96v331.856c0 10.448 8.512 18.96 18.96 18.96h189.632c10.464 0 18.96-8.512 18.96-18.96v-331.84c0-10.464-8.496-18.976-18.96-18.976zM493.040 58.080c0-10.448-8.512-18.96-18.96-18.96h-189.632c-10.464 0-18.96 8.512-18.96 18.96v331.84c0 10.448 8.512 18.96 18.96 18.96h189.632c10.464 0 18.96-8.512 18.96-18.96v-331.84zM204.128 352h-142.784c-2.448 0-4.448-2.128-4.448-4.736 0-2.624 2-4.736 4.464-4.736h142.784c2.464 0 4.464 2.128 4.464 4.736-0.016 2.608-2.016 4.736-4.48 4.736zM204.128 304.592h-142.784c-2.464 0-4.464-2.128-4.464-4.736s2-4.736 4.464-4.736h142.784c2.464 0 4.464 2.128 4.464 4.736s-2 4.736-4.464 4.736zM204.128 257.184h-142.784c-2.464 0-4.464-2.128-4.464-4.736 0-2.624 2-4.736 4.464-4.736h142.784c2.464 0 4.464 2.128 4.464 4.736s-2 4.736-4.464 4.736zM204.128 200.304h-142.784c-2.464 0-4.464-2.128-4.464-4.736 0-2.624 2-4.736 4.464-4.736h142.784c2.464 0 4.464 2.128 4.464 4.736s-2 4.736-4.464 4.736zM204.128 152.896h-142.784c-2.464 0-4.464-2.128-4.464-4.736 0-2.624 2-4.736 4.464-4.736h142.784c2.464 0 4.464 2.128 4.464 4.736s-2 4.736-4.464 4.736zM204.128 105.488h-142.784c-2.464 0-4.464-2.128-4.464-4.736 0.016-2.624 2.016-4.752 4.464-4.752h142.784c2.464 0 4.464 2.128 4.464 4.736 0 2.624-2 4.752-4.464 4.752zM307.872 342.512h142.784c2.464 0 4.464 2.128 4.464 4.736-0.016 2.624-2.016 4.752-4.464 4.752h-142.784c-2.464 0-4.464-2.128-4.464-4.736 0-2.624 2-4.752 4.464-4.752zM307.872 295.104h142.784c2.464 0 4.464 2.128 4.464 4.736s-2 4.736-4.464 4.736h-142.784c-2.464 0-4.464-2.128-4.464-4.736s2-4.736 4.464-4.736zM307.872 247.696h142.784c2.464 0 4.464 2.128 4.464 4.736s-2 4.736-4.464 4.736h-142.784c-2.464 0-4.464-2.128-4.464-4.736s2-4.736 4.464-4.736zM307.872 190.816h142.784c2.464 0 4.464 2.128 4.464 4.736 0 2.624-2 4.736-4.464 4.736h-142.784c-2.464 0-4.464-2.128-4.464-4.736 0-2.624 2-4.736 4.464-4.736zM367.808 152.896h-62.448c-1.088 0-1.952-2.128-1.952-4.736 0-2.624 0.864-4.736 1.952-4.736h62.448c1.088 0 1.952 2.128 1.952 4.736s-0.864 4.736-1.952 4.736zM367.808 105.488h-62.448c-1.088 0-1.952-2.128-1.952-4.736 0-2.624 0.864-4.736 1.952-4.736h62.448c1.088 0 1.952 2.128 1.952 4.736s-0.864 4.736-1.952 4.736zM384 91.264h75.856v66.368h-75.856v-66.368zM393.488 148.144h56.896v-47.408h-56.896v47.408z" />
<glyph unicode="&#x4f;" d="M366.624 214.864h-45.008c-3.104 0-5.632-2.512-5.632-5.632 0-3.104 2.512-5.616 5.632-5.616h45.008c3.104 0 5.632 2.512 5.632 5.616 0 3.12-2.512 5.632-5.632 5.632zM366.624 158.608h-45.008c-3.104 0-5.632-2.512-5.632-5.632 0-3.104 2.512-5.616 5.632-5.616h45.008c3.104 0 5.632 2.512 5.632 5.616s-2.512 5.632-5.632 5.632zM366.624 102.336h-45.008c-3.104 0-5.632-2.512-5.632-5.632 0-3.104 2.512-5.616 5.632-5.616h45.008c3.104 0 5.632 2.512 5.632 5.616 0 3.12-2.512 5.632-5.632 5.632zM366.624 46.064h-45.008c-3.104 0-5.632-2.512-5.632-5.632 0-3.104 2.512-5.616 5.632-5.616h45.008c3.104 0 5.632 2.512 5.632 5.616 0 3.12-2.512 5.632-5.632 5.632zM434.928 385.552c-16.256 0-28.976-4.88-37.792-14.512-13.568-14.816-11.952-35.2-11.92-35.2v-42.32h-258.464v42.336c0 14.512-4.464 26.336-13.264 35.104-14.56 14.512-35.472 14.192-36.48 14.608-5.456-0.032-9.856-4.448-9.872-9.92s4.416-9.92 9.888-9.968c4.992-0.032 29.856-1.696 29.856-29.824l0.032-317.344c-0.064-0.864-1.488-21.328 12.192-36.112 8.816-9.52 21.424-14.352 37.472-14.352l198.144 0.016c0.144-0.032 0.848-0.064 1.984-0.064 5.616 0 21.888 1.072 34.16 12.528 9.44 8.816 14.24 21.344 14.24 37.216l-0.032 318.976c-0.016 0.128-0.864 12.608 6.736 20.896 4.896 5.344 12.672 8.064 23.136 8.064 5.488 0 9.936 4.448 9.936 9.936-0.016 5.504-4.464 9.936-9.952 9.936zM377.392-4.848c-8.352-7.888-21.248-7.232-22-7.248h-198.816c-10.224 0-17.888 2.656-22.8 7.888-7.792 8.304-7.056 21.104-7.024 21.936v266.4h258.464v-266.4c0-10.064-2.624-17.664-7.824-22.576zM246.048 430.288c13.696 0 24.848 11.152 24.848 24.848s-11.152 24.864-24.848 24.864c-13.696 0-24.848-11.152-24.848-24.848s11.136-24.864 24.848-24.864zM246.048 470.064c8.224 0 14.912-6.688 14.912-14.912s-6.688-14.912-14.912-14.912c-8.224 0-14.912 6.688-14.912 14.912s6.688 14.912 14.912 14.912zM206.272 350.768c19.184 0 34.8 15.616 34.8 34.8s-15.616 34.8-34.8 34.8c-19.184 0-34.8-15.616-34.8-34.8s15.632-34.8 34.8-34.8zM206.272 410.416c13.696 0 24.848-11.152 24.848-24.848s-11.152-24.848-24.848-24.848c-13.696 0-24.848 11.152-24.848 24.848s11.152 24.848 24.848 24.848zM315.632 320.944c24.672 0 44.736 20.064 44.736 44.736s-20.064 44.736-44.736 44.736c-24.672 0-44.736-20.064-44.736-44.736s20.064-44.736 44.736-44.736zM315.632 400.464c19.184 0 34.8-15.616 34.8-34.8s-15.616-34.784-34.8-34.784c-19.184 0-34.8 15.616-34.8 34.8s15.616 34.784 34.8 34.784z" />
<glyph unicode="&#x50;" d="M277.968 443.424c8.080 0 14.576-8.208 14.576-18.288v-164.272h164.592c10.080 0 18.288-6.544 18.288-14.608v-43.824c0-8.080-8.208-14.608-18.288-14.608h-164.592v-164.96c0-10.080-6.496-18.288-14.576-18.288h-43.856c-8.080 0-14.576 8.208-14.576 18.288v164.96h-164.672c-10.080 0-18.288 6.544-18.288 14.608v43.824c0 8.080 8.208 14.608 18.288 14.608h164.672v164.272c0 10.080 6.496 18.288 14.576 18.288h43.856zM277.968 480h-43.856c-28.208 0-51.152-24.608-51.152-54.864v-127.696h-128.096c-30.256 0-54.864-22.96-54.864-51.184v-43.824c0-28.224 24.608-51.184 54.864-51.184h128.080v-128.384c0-30.256 22.944-54.864 51.152-54.864h43.856c28.208 0 51.152 24.608 51.152 54.864v128.384h128.016c30.256 0 54.864 22.96 54.864 51.184v43.824c0 28.224-24.608 51.184-54.864 51.184h-128v127.696c0 30.256-22.944 54.864-51.152 54.864v0z" />
<glyph unicode="&#x51;" d="M399.488 154.56l-26.384 26.384 112.512 112.512 26.384-26.384-112.512-112.512zM138.896 267.072l-26.384 26.368-112.512-112.512 26.384-26.384 112.512 112.528z" />
<glyph unicode="&#x52;" d="M432 480c44.182 0 80-35.817 80-80 0-18.010-5.955-34.629-16-48l-32-32-112 112 32 32c13.371 10.045 29.989 16 48 16zM32 112l-32-144 144 32 296 296-112 112-296-296zM357.789 298.211l-224-224-27.578 27.578 224 224 27.578-27.578z" />
<glyph unicode="&#x53;" d="M96 416l320-192-320-192v384z" />
<glyph unicode="&#x54;" d="M263.36 164.928l196.928-196.928 51.712 51.712-198.416 198.432 198.416 210.144-51.712 51.712-248.64-263.36zM51.712 164.928l196.928-196.928 51.712 51.712-198.416 198.432 198.416 210.144-51.712 51.712-248.64-263.36z" />
<glyph unicode="&#x55;" d="M248.64 283.072l-196.928 196.928-51.712-51.712 198.416-198.432-198.416-210.144 51.712-51.712 248.64 263.36zM460.288 283.072l-196.928 196.928-51.712-51.712 198.416-198.432-198.416-210.144 51.712-51.712 248.64 263.36z" />
<glyph unicode="&#x56;" d="M407.878-31.496c-32.563 0-74.472 12.48-118.007 35.143-48.953 25.481-99.115 63.23-145.063 109.168-59.609 59.622-105.167 126.211-128.284 187.501-21.89 58.040-21.473 104.288 1.144 126.887 2.888 2.891 5.866 6.024 9.018 9.342 18.184 19.135 40.814 42.951 70.481 42.951 22.006 0 42.984-12.785 64.133-39.085 27.066-33.66 37.71-58.841 34.513-81.646-3.029-21.609-17.755-36.117-33.345-51.478-1.739-1.713-3.507-3.455-5.288-5.235-3.169-3.183-2.063-14.351 11.55-35.286 12.173-18.721 32.389-42.265 60.084-69.978 65.974-66.016 92.303-73.143 100.561-73.143 2.746 0 3.862 0.739 4.66 1.538 1.803 1.802 3.555 3.578 5.278 5.326 16.398 16.632 33.355 33.83 59.229 33.83 20.639 0 44.106-11.13 73.853-35.026 25.396-20.399 38.171-40.625 39.057-61.83 1.286-30.773-23.209-54.068-42.892-72.786-3.325-3.161-6.466-6.148-9.371-9.054-11.222-11.214-28.964-17.139-51.311-17.139zM97.167 451.496c-17.649 0-34.933-18.19-50.183-34.238-3.276-3.448-6.372-6.705-9.516-9.853-11.359-11.35-14.133-45.802 5.255-97.207 21.743-57.648 65.029-120.716 121.884-177.584 43.952-43.941 91.739-79.95 138.191-104.131 39.617-20.621 76.935-31.979 105.079-31.979 14.553 0 25.746 3.176 31.517 8.941 3.15 3.15 6.415 6.255 9.871 9.541 16.39 15.587 34.966 33.253 34.211 51.327-0.521 12.484-10.149 26.336-28.616 41.171-24.17 19.416-42.592 28.854-56.317 28.854-13.502 0-23.241-9.21-39.292-25.489-1.771-1.797-3.573-3.624-5.415-5.464-6.359-6.368-14.822-9.741-24.461-9.741-16.771 0-47.495 8.434-120.366 81.35-29.070 29.088-50.52 54.155-63.753 74.506-20.428 31.415-23.084 55.077-7.896 70.329 1.851 1.851 3.668 3.641 5.456 5.403 13.161 12.966 23.556 23.208 25.268 35.419 1.979 14.118-7.377 33.814-28.605 60.213-15.276 18.999-29.512 28.632-42.312 28.632z" />
<glyph unicode="&#x57;" d="M440.693 415.831h-369.386c-39.318 0-71.307-32.217-71.307-71.814v-240.032c0-39.598 31.989-71.816 71.307-71.816h369.386c39.318 0 71.307 32.218 71.307 71.816v240.032c0 39.597-31.989 71.814-71.307 71.814zM475.412 344.017v-240.032c0-5.622-1.304-10.93-3.612-15.642l-153.115 135.523 153.284 135.458c2.204-4.628 3.443-9.821 3.443-15.307zM440.693 379.242c5.238 0 10.201-1.185 14.655-3.293l-199.301-176.129-197.643 176.899c3.99 1.621 8.341 2.524 12.903 2.524h369.386zM41.232 86.396c-2.946 5.177-4.642 11.181-4.642 17.589v240.032c0 6.148 1.555 11.922 4.283 16.954l153.223-137.149-152.864-137.426zM71.307 68.76c-4.271 0-8.362 0.788-12.141 2.219l152.512 137.107 36.511-32.683c2.221-1.991 5.017-3 7.811-3 2.772 0 5.542 0.985 7.766 2.932l37.226 32.896 154.030-136.328c-4.37-2.012-9.218-3.143-14.329-3.143h-369.386z" />
<glyph unicode="&#x58;" d="M255.994 420.353c115.261 0 208.691-31.342 208.691-69.985 0-1.096-0.106-2.187-0.256-3.272 0.067-0.3 0.256-0.445 0.256-0.829 0-4.324 0-10.479 0-13.662s-1.447-7.223-3.194-8.987c-1.77-1.759-7.234-7.223-12.148-12.154l-152.474-152.613c0-49.634 0-110.336 0-112.935 0-4.418-6.656-18.27-40.863-18.27-34.219 0-40.874 14.742-40.874 18.27 0 2.070 0 62.823 0 112.618l-150.872 151.3c-4.919 4.93-10.735 10.768-12.939 12.972-2.204 2.209-4.007 7.134-4.007 10.952 0 3.806 0 9.956 0 13.656 0 0.245 0.15 0.306 0.184 0.501-0.083 0.818-0.184 1.631-0.184 2.454 0.001 38.642 93.431 69.984 208.68 69.984zM255.994 466.668c-117.63 0-254.994-30.458-254.994-116.3 0-0.515 0.008-1.028 0.022-1.541-0.014-0.471-0.022-0.943-0.022-1.413v-13.656c0-16.090 6.718-32.819 17.531-43.66l150.286-150.709v-93.472c0-25.961 23.22-64.585 87.189-64.585 68.958 0 87.178 42.246 87.178 64.585v93.763l150.953 151.086c10.656 10.755 16.863 26.3 16.863 41.84v13.662c0 0.617-0.013 1.237-0.040 1.859 0.026 0.747 0.040 1.494 0.040 2.242 0 85.841-137.37 116.299-255.006 116.299v0zM161.106 316.369c1.459 6.23-2.408 12.449-8.639 13.908-18.702 4.376-32.735 9.51-42.086 13.976 22.592 10.832 71.485 24.458 145.616 24.458 74.154 0 123.069-13.637 145.662-24.48-8.616-4.127-21.597-8.989-39.779-13.399-6.219-1.504-10.041-7.757-8.548-13.976 1.515-6.208 7.779-10.143 13.976-8.526 30.213 7.305 54.049 17.696 63.774 27.794 4.342 4.489 4.342 11.601 0 16.079-15.378 15.943-74.719 39.666-175.083 39.666-100.376 0-159.694-23.723-175.072-39.666-4.319-4.478-4.331-11.579-0.011-16.068 10.041-10.437 34.815-21.054 66.284-28.404 0.882-0.204 1.775-0.305 2.646-0.305 5.255-0.001 10.016 3.606 11.26 8.943z" />
<glyph unicode="&#x59;" d="M350.63 131.115c-38.981 0-62.577 16.267-83.409 30.632-20.343 14.012-37.923 26.124-70.887 26.124-40.921 0-76.785-21.774-90.308-31.161-5.978-4.155-13.778-4.625-20.245-1.235s-10.504 10.074-10.504 17.364v249.072c0 5.723 2.489 11.151 6.84 14.875 22.264 19.089 67.398 39.608 113.944 39.608 48.486 0 73.728-19.774 94.012-35.668 17.109-13.405 30.632-23.988 57.226-23.988 35.649 0 64.164 24.36 64.458 24.615 5.801 5.037 14.012 6.213 21.009 3.038 6.957-3.195 11.485-10.132 11.485-17.795v-247.896c0-5.468-2.274-10.7-6.291-14.385-1.49-1.353-36.57-33.199-87.329-33.199zM196.333 227.067c45.154 0 70.631-17.56 93.11-33.062 19.206-13.248 34.375-23.694 61.166-23.694 24.791 0 44.762 11.288 54.424 17.991v202.997c-15.404-7.31-35.336-13.738-57.755-13.738-40.118 0-62.048 17.168-81.391 32.317-18.716 14.679-34.885 27.34-69.828 27.34-33.434 0-64.85-13.778-81.587-25.047v-205.27c21.812 10.622 50.211 20.166 81.861 20.166zM9.799 450.603h39.196v-470.354h-39.196v470.354zM48.995-32h-39.196c-5.409 0-9.799 4.39-9.799 9.799v470.354c0 5.409 4.39 9.799 9.799 9.799h39.196c5.409 0 9.799-4.39 9.799-9.799v-470.354c0-5.409-4.39-9.799-9.799-9.799z" horiz-adv-x="446" />
</font>
</defs>
</svg>
